<?xml version="1.0" encoding="UTF-8"?>
<svg width="728px" height="501px" viewBox="0 0 728 501" version="1.1" xmlns="http://www.w3.org/2000/svg" xmlns:xlink="http://www.w3.org/1999/xlink">
    <!-- Generator: Sketch 56.1 (81669) - https://sketch.com -->
    <title>characters_1</title>
    <desc>Created with Sketch.</desc>
    <defs>
        <polygon id="path-1" points="0.27746565 28.3553156 0.27746565 83.5418901 50.3166649 84.9839001 56.5121848 47.4564401 68.6505308 45.3399415 76.8104959 83.5418901 126.740729 83.9498979 107.873694 0.37934155"></polygon>
        <polygon id="path-3" points="0.582811355 83.9205775 7.60312339 173.607971 131.658831 155.935391 112.463449 25.3575874 73.3369919 0 21.1541006 9.29716999"></polygon>
    </defs>
    <g id="characters_1" stroke="none" stroke-width="1" fill="none" fill-rule="evenodd">
        <g id="Group" transform="translate(90.061197, 60.414383)">
            <g transform="translate(39.514473, 0.000000)">
                <path d="M0.45169924,34.3915722 L522.475247,34.3915722" id="Path" stroke="#F0F0F2" stroke-width="1.75819951"></path>
                <path d="M515.658138,323.153471 L7.26880782,323.153471 C3.50342337,323.153471 0.45169924,320.101746 0.45169924,316.336362 L0.45169924,6.98848499 C0.45169924,3.22310054 3.50342337,0.171376405 7.26880782,0.171376405 L515.659363,0.171376405 C519.424747,0.171376405 522.476471,3.22310054 522.476471,6.98848499 L522.476471,316.336362 C522.476471,320.101746 519.423523,323.153471 515.658138,323.153471 Z" id="Path" stroke="#F0F0F2" stroke-width="1.75819951"></path>
                <circle id="Oval" fill="#F0F0F2" cx="21.2282647" cy="17.6309598" r="4.77528112"></circle>
                <circle id="Oval" fill="#F0F0F2" cx="39.7871053" cy="17.6309598" r="4.77528112"></circle>
                <circle id="Oval" fill="#F0F0F2" cx="58.3447217" cy="17.6309598" r="4.77528112"></circle>
                <g transform="translate(15.631601, 12.241172)"></g>
            </g>
            <g transform="translate(0.000000, 127.215439)"></g>
            <g transform="translate(480.932254, 100.172694)" fill="#FFFFFF" id="Path" stroke="#F0F0F2" stroke-width="1.75819951">
                <path d="M118.942707,82.4478656 L5.59010888,82.4478656 C2.79973917,82.4478656 0.53861156,80.3677753 0.53861156,77.8008168 L0.53861156,4.70335737 C0.53861156,2.13639884 2.79973917,0.0563085996 5.59010888,0.0563085996 L118.94172,0.0563085996 C121.732089,0.0563085996 123.993217,2.13730718 123.993217,4.70335737 L123.993217,77.8008168 C123.993217,80.366867 121.732089,82.4478656 118.942707,82.4478656 Z"></path>
            </g>
            <g transform="translate(352.523695, 62.344296)">
                <g>
                    <g transform="translate(0.364776, 0.085680)"></g>
                </g>
            </g>
        </g>
        <path d="M288.245425,36.60965 L217.622352,36.60965 C216.163687,36.60965 214.980523,34.7551124 214.980523,32.4660133 L214.980523,32.4660133 C214.980523,30.1781383 216.163687,28.3223767 217.622352,28.3223767 L288.245425,28.3223767 C289.704089,28.3223767 290.887254,30.1769142 290.887254,32.4660133 L290.887254,32.4660133 C290.887254,34.7551124 289.70487,36.60965 288.245425,36.60965 Z" id="Path" fill="#F0F0F2" fill-rule="nonzero"></path>
        <path d="M726.173692,359.644057 L695.964629,359.644057 C695.168432,359.644057 694.522613,357.788296 694.522613,355.500421 L694.522613,355.500421 C694.522613,353.211321 695.168432,351.356784 695.964629,351.356784 L726.173692,351.356784 C726.970315,351.356784 727.615708,353.211321 727.615708,355.500421 L727.615708,355.500421 C727.615708,357.78952 726.970315,359.644057 726.173692,359.644057 Z" id="Path" fill="#F0F0F2" fill-rule="nonzero"></path>
        <path d="M575.359389,18.3348271 L565.659484,18.3348271 C563.110872,18.3348271 561.044562,16.2685173 561.044562,13.7199054 L561.044562,4.61492177 C561.044562,2.0663098 563.110872,0 565.659484,0 L575.359389,0 C577.908001,0 579.97431,2.0663098 579.97431,4.61492177 L579.97431,13.7199054 C579.97431,16.2685173 577.908001,18.3348271 575.359389,18.3348271 Z" id="Path" fill="#F0F0F2" fill-rule="nonzero"></path>
        <path d="M48.8220258,345.389724 L36.0679489,345.389724 C32.716316,345.389724 30,342.673408 30,339.321775 L30,327.349909 C30,323.998276 32.716316,321.28196 36.0679489,321.28196 L48.8220258,321.28196 C52.1736586,321.28196 54.8899746,323.998276 54.8899746,327.349909 L54.8899746,339.321775 C54.8899746,342.672184 52.1736586,345.389724 48.8220258,345.389724 Z" id="Path" fill="#F0F0F2" fill-rule="nonzero"></path>
        <rect id="Rectangle" stroke="#F0F0F2" stroke-width="1.75819951" fill="#FFFFFF" x="77.7940106" y="204.452156" width="77.0014615" height="51.3343077" rx="7.08059416"></rect>
        <path d="M696.536736,107.958673 L687.408494,107.958673 C685.010449,107.958673 683.065327,106.014775 683.065327,103.615506 L683.065327,95.0466853 C683.065327,92.6474157 685.010449,90.7035176 687.408494,90.7035176 L696.536736,90.7035176 C698.934782,90.7035176 700.879904,92.6474157 700.879904,95.0466853 L700.879904,103.615506 C700.879904,106.013551 698.934782,107.958673 696.536736,107.958673 Z" id="Path" fill="#F0F0F2" fill-rule="nonzero"></path>
        <g id="Group-24" transform="translate(406.623442, 49.564159)">
            <rect id="Rectangle" fill="#F0F0F2" fill-rule="nonzero" x="0" y="0" width="144.267106" height="67.2656446" rx="14.1611883"></rect>
            <path d="M117.347171,65.7498956 L117.347171,72.2061202 C117.347171,73.1431419 118.106777,73.9027482 119.043799,73.9027482 C119.427326,73.9027482 119.799538,73.7728036 120.099733,73.5341068 L129.889475,65.7498956 L117.347171,65.7498956 Z" id="Path" fill="#F0F0F2" fill-rule="nonzero" transform="translate(123.618323, 70.736337) scale(-1, 1) translate(-123.618323, -70.736337) "></path>
            <g id="Group-23" transform="translate(14.161188, 10.620891)">
                <g id="Group-10">
                    <rect id="Rectangle" x="0" y="0" width="21.2417825" height="21.2417825"></rect>
                    <g id="Group-17" transform="translate(1.770149, 1.770149)" fill="#CCCCD0">
                        <path d="M8.85074271,17.7014854 C3.96261248,17.7014854 0,13.7388729 0,8.85074271 C0,3.96261248 3.96261248,0 8.85074271,0 C13.7388729,0 17.7014854,3.96261248 17.7014854,8.85074271 C17.7014854,13.7388729 13.7388729,17.7014854 8.85074271,17.7014854 Z M6.97321665,13.2316368 C7.19972691,13.2316368 7.42623717,13.1452261 7.59905867,12.9724046 L13.2316368,7.33982642 C13.5772798,6.99418341 13.5772798,6.43378538 13.2316368,6.08814238 C12.8859938,5.74249938 12.3255958,5.74249938 11.9799528,6.08814238 L6.97321665,11.0948785 L5.72153261,9.84319449 C5.37588961,9.49755149 4.81549158,9.49755149 4.46984858,9.84319449 C4.12420557,10.1888375 4.12420557,10.7492355 4.46984858,11.0948785 L6.34737463,12.9724046 C6.52019613,13.1452261 6.74670639,13.2316368 6.97321665,13.2316368 Z" id="Combined-Shape"></path>
                    </g>
                </g>
                <rect id="Rectangle" fill="#CCCCD0" x="31.8626737" y="8.85074271" width="62.8402732" height="3.54029708" rx="1.77014854"></rect>
                <rect id="Rectangle-Copy" fill="#EF3E42" x="108.864135" y="7.08059416" width="7.08059416" height="7.08059416" rx="3.54029708"></rect>
            </g>
            <g id="Group-23-Copy-3" transform="translate(14.161188, 35.402971)">
                <g id="Group-10">
                    <rect id="Rectangle" x="0" y="0" width="21.2417825" height="21.2417825"></rect>
                    <g id="Group-17" transform="translate(1.770149, 1.770149)" fill="#CCCCD0">
                        <path d="M8.85074271,17.7014854 C3.96261248,17.7014854 0,13.7388729 0,8.85074271 C0,3.96261248 3.96261248,0 8.85074271,0 C13.7388729,0 17.7014854,3.96261248 17.7014854,8.85074271 C17.7014854,13.7388729 13.7388729,17.7014854 8.85074271,17.7014854 Z M6.97321665,13.2316368 C7.19972691,13.2316368 7.42623717,13.1452261 7.59905867,12.9724046 L13.2316368,7.33982642 C13.5772798,6.99418341 13.5772798,6.43378538 13.2316368,6.08814238 C12.8859938,5.74249938 12.3255958,5.74249938 11.9799528,6.08814238 L6.97321665,11.0948785 L5.72153261,9.84319449 C5.37588961,9.49755149 4.81549158,9.49755149 4.46984858,9.84319449 C4.12420557,10.1888375 4.12420557,10.7492355 4.46984858,11.0948785 L6.34737463,12.9724046 C6.52019613,13.1452261 6.74670639,13.2316368 6.97321665,13.2316368 Z" id="Combined-Shape"></path>
                    </g>
                </g>
                <rect id="Rectangle" fill="#CCCCD0" x="31.8626737" y="8.85074271" width="45.1387878" height="3.54029708" rx="1.77014854"></rect>
                <rect id="Rectangle-Copy" fill="#B30838" x="108.864135" y="7.08059416" width="7.08059416" height="7.08059416" rx="3.54029708"></rect>
            </g>
        </g>
        <g id="Group-42" transform="translate(472.720423, 114.275539)">
            <g id="Group" transform="translate(0.000000, 0.000000)">
                <g transform="translate(0.000000, 93.226321)">
                    <g transform="translate(94.257023, 3.478936)" id="Path">
                        <path d="M39.9833395,20.9911614 C40.3554711,10.7134736 32.7549275,1.88024399 22.5372214,0.712436199 C11.5067015,-0.54718038 1.61583468,7.54790654 0.680609153,18.6102535 C0.0110170546,26.5302917 0.773642059,40.1681812 1.73212581,54.6568321 L41.9896676,49.8093281 L39.9833395,20.9911614 Z" fill="#B30838"></path>
                        <path d="M41.9896676,49.8105522 L1.73212581,54.6580563 C3.00031121,73.8375243 4.61369766,84.8300965 3.71764388,95.7688077 C2.70652309,108.105461 12.4358064,118.675712 24.8128553,118.696554 L24.8128553,118.696554 C36.2375409,118.716108 45.6228473,109.678451 46.036599,98.2611103 L41.9896676,49.8105522 Z" fill="#FA957C" fill-rule="nonzero"></path>
                    </g>
                    <g>
                        <g transform="translate(0.000000, 26.737163)">
                            <path d="M31.9702684,18.9566787 L124.455994,65.227084 C134.710423,70.920453 137.59934,82.1945723 132.262189,90.7438066 L132.262189,90.7438066 C126.865056,99.3909704 115.289804,101.684966 107.001307,95.75167 L23.3941035,35.5324494 L31.9702684,18.9566787 Z" id="Path" fill="#FA957C" fill-rule="nonzero"></path>
                            <g>
                                <circle id="Oval" fill="#FA957C" fill-rule="nonzero" transform="translate(23.307996, 23.779267) rotate(-71.331325) translate(-23.307996, -23.779267) " cx="23.3079961" cy="23.7792667" r="18.144144"></circle>
                                <path d="M19.3901295,40.735852 C26.7100625,42.6453998 32.7569636,39.7810782 37.530833,32.1428872" id="Path-9" stroke="#E7785D" stroke-width="1.44825304" stroke-linecap="round" stroke-linejoin="round"></path>
                            </g>
                            <path d="M103.394741,76.8645838 C96.6091718,71.5541381 94.5439985,64.3260316 97.1992213,55.1802641" id="Path-7" stroke="#E7785D" stroke-width="1.44825304" stroke-linecap="round" stroke-linejoin="round"></path>
                        </g>
                        <g transform="translate(5.089884, 0.000000)">
                            <path d="M26.6932217,4.17215859 L9.09898542,0.0661023278 C8.12067097,-0.161950703 7.1996452,0.515598157 7.04210132,1.58094734 L0.283138304,47.2851985 C0.125594423,48.349446 0.791024523,49.3982696 1.77044068,49.6263226 L19.3646769,53.7323788 C20.3440931,53.9604319 21.2640171,53.282883 21.421561,52.2175338 L28.180524,6.5132827 C28.3380679,5.44903522 27.6726378,4.40131333 26.6932217,4.17215859 Z" id="Path" fill="#0C0D1E" fill-rule="nonzero"></path>
                            <path d="M28.3942549,4.5368231 L10.8000187,0.430766836 C9.8217042,0.202713805 8.90067844,0.880262665 8.74313456,1.94451014 L1.98417154,47.6487613 C1.82662766,48.7141105 2.49205776,49.7618324 3.47147391,49.9898854 L21.0657102,54.0959417 C22.0440246,54.3239947 22.9650504,53.6464458 23.1225943,52.5810966 L29.8815573,6.8768455 C30.0391012,5.81369973 29.3736711,4.76487613 28.3942549,4.5368231 Z" id="Path" fill="#191B34" fill-rule="nonzero"></path>
                            <polygon id="Path" fill="#FFFFFF" fill-rule="nonzero" points="27.4269575 8.97889952 10.1670121 4.90748218 4.65848478 42.1550422 21.9184302 46.2275612"></polygon>
                            <polygon id="Path" fill="#FFFFFF" fill-rule="nonzero" points="11.9678264 5.37191584 21.9184302 46.2275612 27.4269575 8.97889952"></polygon>
                            <path d="M12.4009119,15.4083964 L23.0699832,17.8978464 C24.0461225,18.1256122 24.6800058,19.0693623 24.5216424,20.059133 L23.2146695,28.227714 C23.0480505,29.2690828 22.0687828,29.9782077 21.027414,29.8115886 C20.9875457,29.8052097 20.9478897,29.7975679 20.9085058,29.7886748 L9.9114428,27.305467 C8.90064052,27.0772213 8.25635018,26.084451 8.45957584,25.0683227 L10.0945405,16.8934995 C10.3013673,15.8593653 11.307365,15.1887002 12.3414992,15.3955271 C12.3613705,15.3995013 12.3811772,15.4037916 12.4009119,15.4083964 Z" id="Path-5" fill="#E3E3EB"></path>
                            <path d="M9.52048809,29.553731 L16.7124742,30.9236331 C17.5287648,31.079117 18.1193409,31.7928018 18.1193409,32.6237685 C18.1193409,33.2838855 17.5842104,33.8190161 16.9240934,33.8190161 C16.8523886,33.8190161 16.7808292,33.8125636 16.710281,33.7997366 L9.04532454,32.4061082 C8.25301275,32.2620515 7.72313112,31.5085652 7.85552185,30.7142208 C7.98434156,29.9413026 8.71534457,29.4191576 9.48826279,29.5479773 C9.49902633,29.5497712 9.50976881,29.5516892 9.52048809,29.553731 Z" id="Path-5-Copy" fill="#E3E3EB"></path>
                            <path d="M8.56571422,34.3276003 L15.7577003,35.6975024 C16.573991,35.8529864 17.1645671,36.5666711 17.1645671,37.3976379 C17.1645671,38.0577549 16.6294365,38.5928854 15.9693195,38.5928854 C15.8976147,38.5928854 15.8260554,38.5864329 15.7555072,38.573606 L8.09055067,37.1799775 C7.29823889,37.0359208 6.76835726,36.2824345 6.90074798,35.4880901 C7.02956769,34.7151719 7.76057071,34.1930269 8.53348892,34.3218466 C8.54425246,34.3236405 8.55499494,34.3255586 8.56571422,34.3276003 Z" id="Path-5-Copy-3" fill="#B30838"></path>
                            <polygon id="Rectangle" fill="#B30838" transform="translate(13.193896, 9.971292) rotate(-349.000000) translate(-13.193896, -9.971292) " points="11.4237472 8.20114363 14.9640443 8.20114363 13.320335 9.97129217 14.9640443 11.7414407 11.4237472 11.7414407"></polygon>
                            <path d="M22.631007,11.1114852 L25.2862299,11.5540224" id="Path-4" stroke="#E3E3EB" stroke-width="0.516093983"></path>
                            <path d="M22.631007,11.9965595 L25.2862299,12.4390966" id="Path-4-Copy" stroke="#E3E3EB" stroke-width="0.516093983"></path>
                            <path d="M22.631007,12.8816338 L25.2862299,13.3241709" id="Path-4-Copy-2" stroke="#E3E3EB" stroke-width="0.516093983"></path>
                        </g>
                    </g>
                </g>
                <g transform="translate(74.671148, 0.000000)">
                    <g transform="translate(0.000000, 181.169343)" id="Path">
                        <path d="M73.835076,0.0820158511 L31.1966264,9.45630523 C31.1966264,9.45630523 19.8306983,25.7819961 0.931553175,138.539102 C0.640213286,140.277348 0.352545748,142.000905 0.0697746793,143.712221 C20.443981,143.994992 40.8181874,143.713445 61.1911697,144.400174 L88.323727,21.2384331 L73.835076,0.0820158511 Z" fill="#EF3E42"></path>
                        <path d="M123.757023,90.3961574 C122.316237,35.8348064 94.6695504,6.34215112 94.6695504,6.34215112 L42.1818539,7.97879579 L56.1673927,143.520817 C78.7903024,144.260184 101.411988,145.158686 124.034898,145.981292 C124.22586,120.125489 124.194033,106.965808 123.757023,90.3961574 Z" fill="#EF3E42"></path>
                        <polyline stroke="#CA2A2E" stroke-width="1.39500394" stroke-linecap="round" stroke-linejoin="round" points="32.727997 55.7707788 48.8361549 69.0952943 53.8728589 142.202817"></polyline>
                    </g>
                    <g transform="translate(20.527503, 90.584671)">
                        <g transform="translate(5.178957, 0.000000)" fill="#B30838" id="Path">
                            <path d="M20.1477447,2.82526245 L5.264928,9.10743183 C2.87422714,10.1307938 1.36978713,12.5325117 1.49219884,15.1300884 L5.49138968,100.040977 L73.2768786,99.2146975 L77.2785177,11.4430474 C77.3997053,6.76202331 73.657579,1.15556662 68.9900202,0.794452051 L41.4131084,0.296236358 L20.1477447,2.82526245 Z"></path>
                            <path d="M3.55850865,33.741566 C3.55850865,33.741566 -3.38958047,42.5625544 3.59523216,59.8164861"></path>
                        </g>
                        <g>
                            <g transform="translate(62.712465, 0.000000)" id="Path">
                                <path d="M46.204303,39.9196854 L10.5800448,59.2864433 C18.8391634,76.6419767 27.9710776,95.2632473 31.1770405,105.760052 C34.7918585,117.598489 47.7356736,123.83047 59.2460475,119.280426 L59.2460475,119.280426 C69.8713846,115.08048 75.2575002,103.217561 71.4260134,92.4538983 L46.204303,39.9196854 Z" fill="#FA957C" fill-rule="nonzero"></path>
                                <path d="M33.7011701,13.8765924 C30.252832,4.18770488 19.9286277,-1.21677248 10.0022615,1.47138885 C-0.713660317,4.37254657 -0.438233951,29.2931241 2.77629777,39.9196854 C5.07886219,47.5275737 4.34194364,46.1737001 10.5812689,59.2864433 L46.2055271,39.9196854 L33.7011701,13.8765924 Z" fill="#B30838"></path>
                                <path d="M10.2336196,59.2864433 L2.42864849,39.9196854" stroke="#780424" stroke-width="1.39500394" stroke-linecap="round" stroke-linejoin="round"></path>
                            </g>
                            <g transform="translate(0.000000, 70.716308)" fill="#FA957C" fill-rule="nonzero">
                                <path d="M21.4878706,12.4930575 L116.344711,14.5520226 C126.409402,15.0759448 133.995257,23.9018296 133.001273,33.9310217 L133.001273,33.9310217 C131.995049,44.0740567 122.635449,51.2620728 112.575654,49.6156352 L22.3998379,34.0460887 L21.4878706,12.4930575 Z" id="Path"></path>
                                <g transform="translate(0.000000, 0.000000)">
                                    <circle id="Oval" transform="translate(20.644269, 21.794826) rotate(-7.637429) translate(-20.644269, -21.794826) " cx="20.644269" cy="21.7948263" r="18.1433352"></circle>
                                    <path d="M9.57721039,8.74725894 C9.57721039,8.74725894 5.6098466,2.78948062 14.921706,0.803962551 C24.2335654,-1.18155552 34.801369,1.57515638 38.6340799,19.4276813 L9.57721039,8.74725894 Z" id="Path"></path>
                                </g>
                            </g>
                        </g>
                    </g>
                    <g>
                        <circle id="Oval" fill="#0C0D1E" fill-rule="nonzero" transform="translate(79.776591, 62.828271) rotate(-13.302524) translate(-79.776591, -62.828271) " cx="79.7765907" cy="62.8282709" r="21.5757584"></circle>
                        <path d="M12.796921,9.54076931 C12.796921,9.54076931 47.6499854,-10.9840035 71.5288393,10.3854102 C86.0737996,23.4014482 80.551807,44.6863977 61.0430515,57.8823809 C42.4597285,70.4516161 35.5875347,11.7600938 35.5875347,11.7600938 L12.796921,9.54076931 Z" id="Path" fill="#0C0D1E" fill-rule="nonzero"></path>
                        <path d="M31.8968214,4.21953192 C31.8968214,4.21953192 -2.01122453,6.04469064 0.36478692,31.6948421 C1.94267397,48.7333291 28.4827586,48.1763558 28.4827586,48.1763558 L31.8968214,4.21953192 Z" id="Path" fill="#0C0D1E" fill-rule="nonzero"></path>
                        <circle id="Oval" fill="#FA957C" fill-rule="nonzero" transform="translate(17.376946, 53.333092) rotate(-17.282593) translate(-17.376946, -53.333092) " cx="17.3769458" cy="53.333092" r="8.90835689"></circle>
                        <path d="M37.1899041,76.1596745 L43.6642599,97.4176935 C45.9227561,104.887257 49.9194987,107.95367 57.2531847,105.671916 L57.2531847,105.671916 C63.5145441,103.724345 70.2043445,98.1986803 69.0475537,91.7451345 L57.2482882,58.782107 L37.1899041,76.1596745 Z" id="Path" fill="#FA957C" fill-rule="nonzero"></path>
                        <path d="M46.34018,92.7415659 L38.7959458,96.0173035 C38.7959458,96.0173035 27.0689032,115.620316 49.4629029,116.347442 C76.4767209,117.22391 78.6838042,101.61764 82.996369,91.1685753 L69.1907754,89.848977 L46.34018,92.7415659 Z" id="Path" fill="#FA957C" fill-rule="nonzero"></path>
                        <path d="M40.6088634,87.4080873 C40.6088634,87.4080873 59.3611145,84.657496 59.3611145,59.6194032 L36.4811402,73.9929871 L40.6088634,87.4080873 Z" id="Path" fill="#E7785D" fill-rule="nonzero"></path>
                        <path d="M44.5811236,78.0937797 L44.5811236,78.0937797 C31.8392879,81.1455038 18.9358687,73.5951491 16.0934686,63.2721689 L9.53464872,38.8779617 C5.97246773,25.9402672 13.3134985,12.5104776 26.126333,8.52352793 L26.126333,8.52352793 C39.2427486,4.44354537 55.4831112,11.0537781 59.5643179,24.1701937 L64.6260425,43.8466533 C68.5407692,59.0661022 59.5851279,73.4262209 44.5811236,78.0937797 Z" id="Path" fill="#FA957C" fill-rule="nonzero"></path>
                        <path d="M42.8671962,20.7083904 C42.9591684,36.3256774 57.789348,44.6521224 57.789348,44.6521224 L68.3449105,23.2570023 C68.3449105,23.2570023 42.7926884,7.87841818 42.8671962,20.7083904 Z" id="Path" fill="#0C0D1E" fill-rule="nonzero"></path>
                        <path d="M47.1884932,23.4736711 C47.1884932,23.4736711 16.1730362,20.6471845 6.26380762,35.4957259 C6.26380762,35.4957259 5.40937382,5.14496451 38.6894476,3.37244283 C71.9695214,1.59992116 62.3100128,25.102971 62.3100128,25.102971 L47.1884932,23.4736711 Z" id="Path" fill="#0C0D1E" fill-rule="nonzero"></path>
                        <g transform="translate(12.241172, 34.275281)">
                            <polyline id="Path" stroke="#0C0D1E" stroke-width="1.34812025" stroke-linecap="round" stroke-linejoin="round" points="15.3528777 18.7155276 15.8841445 23.462654 19.064401 22.8334578"></polyline>
                            <circle id="Oval" fill="#0C0D1E" fill-rule="nonzero" transform="translate(7.651462, 16.564607) rotate(-15.177227) translate(-7.651462, -16.564607) " cx="7.65146159" cy="16.5646067" r="2.31720429"></circle>
                            <circle id="Oval" fill="#0C0D1E" fill-rule="nonzero" transform="translate(26.435843, 11.454937) rotate(-15.177227) translate(-26.435843, -11.454937) " cx="26.4358432" cy="11.4549369" r="2.31720429"></circle>
                            <g fill-rule="nonzero" id="Path">
                                <path d="M17.2820864,5.14006804 L30.9775094,3.74457446 C30.9775094,3.74457446 28.8267355,0.0648782106 23.2447612,0.687953856 C17.6640109,1.3110295 17.2820864,5.14006804 17.2820864,5.14006804 Z" fill="#0C0D1E"></path>
                                <path d="M10.3646002,7.26391135 L0.718556785,10.3756172 C0.718556785,10.3756172 0.982966097,6.65185276 4.92707165,5.42773558 C8.87240133,4.20484252 10.3646002,7.26391135 10.3646002,7.26391135 Z" fill="#0C0D1E"></path>
                                <path d="M15.2059836,28.5806879 L29.1792812,25.3441221 C29.1792812,25.3441221 28.0751276,31.9910784 20.6888045,32.1183866 C15.56465,32.206523 15.2059836,28.5806879 15.2059836,28.5806879 Z" fill="#FFFFFF"></path>
                            </g>
                        </g>
                        <g transform="translate(53.861156, 33.051164)">
                            <circle id="Oval" fill="#FA957C" fill-rule="nonzero" transform="translate(9.111375, 8.957593) rotate(-3.979482) translate(-9.111375, -8.957593) " cx="9.11137544" cy="8.95759279" r="8.24696866"></circle>
                            <path d="M6.40090874,11.5911656 C6.40090874,11.5911656 5.98593302,5.62604257 11.7551973,6.16832648" id="Path" stroke="#121E35" stroke-width="1.20085895" stroke-linecap="round" stroke-linejoin="round"></path>
                        </g>
                    </g>
                </g>
            </g>
            <path d="M19.1990539,127.134362 C19.1990539,127.134362 18.2834142,120.035707 27.5108095,122.382339 C36.7382048,124.730196 44.9899788,131.885161 40.5133822,149.585895 L19.1990539,127.134362 Z" id="Path" fill="#FA957C" fill-rule="nonzero"></path>
        </g>
        <g id="Path-3" transform="translate(145.333658, 355.774407)">
            <mask id="mask-2" fill="white">
                <use xlink:href="#path-1"></use>
            </mask>
            <use id="Mask" fill="#EF3E42" xlink:href="#path-1"></use>
        </g>
        <g id="Group" transform="translate(50.356708, 221.622047)">
            <g transform="translate(0.000000, 59.642699)" fill="#FA957C" fill-rule="nonzero" id="Path">
                <polygon points="49.2361784 1.23635756 28.9403156 141.489734 50.8911849 143.863297 87.2095175 0.0685497714"></polygon>
                <path d="M28.9137528,141.033333 C28.9137528,141.033333 -1.19841072,146.317502 0.252168139,156.005165 L38.3611214,156.005165 C38.3611214,156.005165 55.1098605,157.806187 50.8646221,143.406896 L28.9137528,141.033333 Z"></path>
            </g>
            <path d="M103.202608,0.0526362481 C103.202608,0.0526362481 64.952355,8.15383228 36.60814,65.1420163 L88.7164058,83.7222697 L103.202608,0.0526362481 Z" id="Path" fill="#B30838"></path>
        </g>
        <g id="Group" transform="translate(205.462168, 123.692673)">
            <g transform="translate(38.230121, 0.000000)">
                <g transform="translate(48.964687, 0.000000)" id="Group-35">
                    <g transform="translate(0.591249, 0.000000)">
                        <path d="M19.7915266,49.8754296 L3.16191517e-13,116.021826 L23.096643,142.154279 C23.096643,142.154279 37.471451,83.818975 37.9255985,50.0602713 L19.7915266,49.8754296 Z" id="Path" fill="#FA957C" fill-rule="nonzero"></path>
                        <g id="Group" transform="translate(1.856986, 0.000000)">
                            <g fill="#FA957C" fill-rule="nonzero" id="Path">
                                <path d="M17.1621229,51.7642425 C17.1621229,51.7642425 34.8836673,54.1108751 37.3686252,49.6820191 C41.7105688,41.9419262 39.4177974,20.9311789 39.4177974,20.9311789 C39.4177974,20.9311789 8.3215486,21.6191327 8.73530021,21.914145 C9.14905181,22.2116055 17.1621229,51.7642425 17.1621229,51.7642425 Z"></path>
                                <path d="M17.1621229,51.7642425 C16.8328354,50.2071654 4.91238225,36.7847205 0.623075645,31.6777036 C-0.41252749,30.4462417 -0.0599817419,28.4974472 1.36121831,27.5830317 L1.36121831,27.5830317 C2.28542678,26.9881107 3.92329557,26.4727574 5.25146271,27.607514 L16.6822689,36.4566571 L17.1621229,51.7642425 Z"></path>
                                <path d="M10.8346612,34.6143607 L6.17444706,9.6105432 C5.83047013,7.96043324 6.95053736,6.27727211 8.61166437,5.94798459 L8.61166437,5.94798459 C10.0487779,5.66276529 11.4087721,6.49883732 11.7894726,7.9004515 L16.6957342,25.9414905 L10.8346612,34.6143607 Z"></path>
                                <path d="M16.6467695,22.3597236 L16.3125856,3.30021913 C16.2526038,1.64398858 17.5575127,0.187289138 19.1892609,0.0893597635 L19.1892609,0.0893597635 C20.6031163,0.00489567802 21.8088717,0.979292954 22.0328851,2.38825183 L25.029524,23.3610515 L16.6467695,22.3597236 Z"></path>
                                <path d="M25.3930868,24.4994805 L26.8497863,5.05315493 C26.9770944,3.25125444 28.5194821,1.81781322 30.2785385,1.86677791 L30.2785385,1.86677791 C31.9310967,1.91207025 33.1956097,3.25615091 33.1760238,4.94665674 L32.9740445,22.833457 L25.3930868,24.4994805 Z"></path>
                                <path d="M39.4177974,20.932403 L41.6848624,8.46599363 C41.7338271,7.08763769 40.7263786,5.96879459 39.3810738,5.90636461 L39.3810738,5.90636461 C38.0945267,5.84760698 36.9095812,6.77793604 36.6157931,8.07917261 L32.9752686,22.833457 L39.4177974,20.932403 Z"></path>
                            </g>
                            <path d="M11.3989792,32.3681057 C11.3989792,32.3681057 20.4158263,27.5916005 26.4323623,39.7483082" id="Path" stroke="#E7785D" stroke-width="1.44825304" stroke-linecap="round" stroke-linejoin="round"></path>
                        </g>
                    </g>
                </g>
                <path d="M74.0896924,125.006846 C74.0896924,125.006846 76.7031826,150.713307 62.2108593,152.98894 C47.718536,155.26335 15.6540105,135.260051 15.6540105,135.260051 L0.8157795,95.8057463 L56.4709738,115.868811 L74.0896924,125.006846 Z" id="Path" fill="#FA957C" fill-rule="nonzero"></path>
            </g>
            <path d="M0.280040398,88.6848408 C0.280040398,88.6848408 26.0835504,85.1228286 75.776483,104.213952 L52.7645519,142.714683 L22.9115188,142.176313 L0.280040398,88.6848408 Z" id="Path" fill="#B30838"></path>
        </g>
        <g id="Group" transform="translate(129.849391, 212.204913)">
            <g id="Rectangle" transform="translate(2.555825, 0.172601)">
                <mask id="mask-4" fill="white">
                    <use xlink:href="#path-3"></use>
                </mask>
                <use id="Mask" fill="#B30838" xlink:href="#path-3"></use>
            </g>
            <path d="M79.8090899,39.410674 L92.8846415,39.410674 C93.8216633,39.410674 94.5812695,40.1702802 94.5812695,41.107302 C94.5812695,41.5355502 94.4193215,41.9479568 94.1279195,42.2617743 L89.1824584,47.5876555 C88.5779916,48.2386197 88.5779916,49.2456362 89.1824584,49.8966003 L94.1279195,55.2224815 C94.765517,55.909125 94.7257574,56.9826344 94.0391139,57.6202319 C93.7252964,57.9116339 93.3128898,58.0735819 92.8846415,58.0735819 L79.8090899,58.0735819 C78.8720681,58.0735819 78.1124619,57.3139757 78.1124619,56.3769539 L78.1124619,41.107302 C78.1124619,40.1702802 78.8720681,39.410674 79.8090899,39.410674 Z" id="Rectangle" fill="#EF3E42" transform="translate(87.443916, 48.742128) rotate(-12.000000) translate(-87.443916, -48.742128) "></path>
            <path d="M3.6907133,91.1502136 L0.39538985,60.9696044" id="Path" stroke="#780424" stroke-width="1.39500394" stroke-linecap="round" stroke-linejoin="round"></path>
            <path d="M119.439562,55.5981783 L114.661832,29.5440682" id="Path" stroke="#780424" stroke-width="1.39500394" stroke-linecap="round" stroke-linejoin="round"></path>
        </g>
        <g id="Group" transform="translate(135.630934, 110.603187)">
            <path d="M27.5168926,104.267853 L27.5168926,104.267853 L21.7721106,69.2629984 L54.0422878,63.9674674 L59.7870697,98.9723223 L70.1112887,101.774327 C70.1112887,101.774327 70.2398063,116.652247 46.4662265,120.88402 C22.6926468,125.115793 17.9296068,111.071497 17.9296068,111.071497 L27.5168926,104.267853 Z" id="Path" fill="#FA957C" fill-rule="nonzero"></path>
            <path d="M55.8576535,75.0310385 C55.8576535,75.0310385 55.3178179,88.7815468 43.5454829,92.2837461 C29.996954,96.3135398 23.6437858,80.6656499 23.6437858,80.6656499 C23.6437858,80.6656499 30.968903,87.0396281 40.6406529,85.4641892 C51.4275735,83.7075811 55.8576535,75.0310385 55.8576535,75.0310385 Z" id="Path" fill="#E7785D" fill-rule="nonzero"></path>
            <path d="M17.21105,12.681854 C17.21105,12.681854 22.9533837,-1.54238765 42.2687287,0.796900285 C55.9004977,2.44823436 60.4566618,13.5644425 62.8596038,18.6237188 C63.7801399,20.5614963 64.187771,22.6963567 64.0384287,24.8361135 L61.3894391,48.6745715 L38.7714259,18.3066724 L20.1415866,21.6632018 L17.21105,12.681854 Z" id="Path" fill="#0C0D1E" fill-rule="nonzero"></path>
            <g transform="translate(59.435711, 45.292336)" id="Path">
                <path d="M1.23176912,3.38345989 C1.23176912,3.38345989 3.29318246,-0.754056184 8.53240399,0.659799161 C13.7716255,2.07243039 12.7078677,14.562098 5.28971758,16.8781277 C5.28971758,16.8781277 2.6333833,17.7399062 0.319801825,16.0934686 C0.319801825,16.0922445 1.28073381,6.85015975 1.23176912,3.38345989 Z" fill="#FA957C" fill-rule="nonzero"></path>
                <path d="M7.96074127,5.08498277 C7.96074127,5.08498277 3.59064293,4.09467197 1.2085109,10.6216648" stroke="#E7785D" stroke-width="1.44825304" stroke-linecap="round" stroke-linejoin="round"></path>
            </g>
            <g transform="translate(0.000000, 51.412922)" id="Path">
                <path d="M10.5898377,2.40416614 C10.5898377,2.40416614 7.75478234,-1.24615129 2.89626125,1.17148014 C-1.96225984,3.58911158 1.54116353,15.6234076 9.27023941,16.432549 C9.27023941,16.432549 12.0440889,16.7544919 13.987987,14.6845097 C13.987987,14.6832856 11.2251546,5.81210838 10.5898377,2.40416614 Z" fill="#FA957C" fill-rule="nonzero"></path>
                <path d="M4.32847835,5.39713265 C4.32847835,5.39713265 8.41702974,3.56462923 12.0391925,9.49425286" stroke="#E7785D" stroke-width="1.44825304" stroke-linecap="round" stroke-linejoin="round"></path>
            </g>
            <path d="M60.7382088,36.990373 C61.4763514,44.3815925 62.2879411,59.9193119 58.6572095,69.5506659 C55.2480432,78.5932195 49.8643758,83.0245237 40.6406529,84.2204862 C31.4157058,85.4164487 22.955832,83.44562 16.3198927,72.8092658 C9.68395347,62.1729116 7.98120647,42.3752645 7.98120647,42.3752645 C7.98120647,42.3752645 5.354251,15.9686086 31.4536534,13.3722561 C58.9412047,10.6388024 60.7382088,36.990373 60.7382088,36.990373 Z" id="Path" fill="#FA957C" fill-rule="nonzero"></path>
            <path d="M9.70476346,53.8170878 L2.70893377,31.0876799 C2.25723453,29.2245736 2.32700921,27.2733308 2.95253309,25.4604133 C4.51573073,20.9299556 9.31427008,10.7661106 17.21105,12.681854 L20.1415866,21.66565 C20.1415866,21.66565 10.6485578,24.5839454 8.02282646,37.6452757 L9.70476346,53.8170878 Z" id="Path" fill="#0C0D1E" fill-rule="nonzero"></path>
            <path d="M14.1740153,20.4354122 C14.1740153,20.4354122 31.6238057,37.743205 62.454421,32.7892028 C62.454421,32.7892028 57.2861983,10.7036806 42.7914268,10.5482178 C28.2978793,10.3915308 16.9466407,17.9125067 16.9466407,17.9125067 L14.1740153,20.4354122 Z" id="Path" fill="#0C0D1E" fill-rule="nonzero"></path>
            <path d="M20.1415866,21.6644259 C20.1415866,21.6644259 17.064156,32.3007801 7.83186418,40.9002033 C7.83186418,40.9014274 3.65027989,20.0694012 20.1415866,21.6644259 Z" id="Path" fill="#0C0D1E" fill-rule="nonzero"></path>
            <g transform="translate(12.580215, 35.216910)">
                <circle id="Oval" fill="#0C0D1E" fill-rule="nonzero" transform="translate(33.964765, 12.632258) rotate(-8.928245) translate(-33.964765, -12.632258) " cx="33.9647647" cy="12.6322578" r="2.33443051"></circle>
                <circle id="Oval" fill="#0C0D1E" fill-rule="nonzero" transform="translate(12.345972, 16.027971) rotate(-8.928245) translate(-12.345972, -16.027971) " cx="12.3459715" cy="16.0279707" r="2.33443051"></circle>
                <path d="M15.1766048,4.8900657 L0.302356944,11.3301462 C0.302356944,11.3301462 0.324391053,6.8706873 6.41804638,4.29392064 C12.5129258,1.71837809 15.1766048,4.8900657 15.1766048,4.8900657 Z" id="Path" fill="#0C0D1E" fill-rule="nonzero"></path>
                <path d="M26.0773683,3.37705687 L42.2100086,4.94637509 C42.2100086,4.94637509 40.8218598,0.708481411 34.2312129,0.124577516 C27.640566,-0.45932638 26.0773683,3.37705687 26.0773683,3.37705687 Z" id="Path" fill="#0C0D1E" fill-rule="nonzero"></path>
                <path d="M22.0292128,20.1694964 L22.7024772,23.4513545 C22.8726295,24.2788577 23.7331839,24.7489187 24.4847919,24.4245277 L26.1557118,23.7022985" id="Path" stroke="#0C0D1E" stroke-width="1.25557699" stroke-linecap="round" stroke-linejoin="round"></path>
                <path d="M17.1719158,30.9686581 L33.9619071,27.1787913 C33.9619071,27.1787913 35.3427113,33.7057841 27.0799203,35.302033 C18.8171293,36.8982818 17.1719158,30.9686581 17.1719158,30.9686581 Z" id="Path" fill="#FFFFFF" fill-rule="nonzero"></path>
            </g>
        </g>
        <g id="Group" transform="translate(294.637207, 288.965098)">
            <g transform="translate(0.000000, 82.582037)" id="Path">
                <path d="M54.5809369,31.1745923 L17.9320926,31.1745923 C8.30930743,31.1745923 0.50800863,38.9758911 0.50800863,48.5986762 L0.50800863,48.5986762 C0.50800863,58.2214614 8.30930743,66.0227602 17.9320926,66.0227602 L61.0442756,66.0227602 L54.5809369,31.1745923 Z" fill="#FA957C" fill-rule="nonzero"></path>
                <polygon fill="#FA957C" fill-rule="nonzero" points="4.53902651 37.4543134 27.2843479 0.206875804 61.0442756 4.76426407 56.0364122 48.5986762"></polygon>
                <path d="M45.5163492,31.1745923 L17.9320926,31.1745923" stroke="#E7785D" stroke-width="1.44825304" stroke-linecap="round" stroke-linejoin="round"></path>
            </g>
            <g transform="translate(162.807585, 75.237334)" id="Path">
                <path d="M6.48904518,38.5192953 L43.1378895,38.5192953 C52.7606746,38.5192953 60.5619734,46.3205941 60.5619734,55.9433793 L60.5619734,55.9433793 C60.5619734,65.5661645 52.7606746,73.3674633 43.1378895,73.3674633 L0.0257064608,73.3674633 L6.48904518,38.5192953 Z" fill="#FA957C" fill-rule="nonzero"></path>
                <polygon fill="#FA957C" fill-rule="nonzero" points="56.1441345 44.3497655 27.5010166 0.219116975 0.0257064608 12.1089672 5.03356985 55.9433793"></polygon>
                <path d="M8.56759615,38.5192953 L43.1378895,38.5192953" stroke="#E7785D" stroke-width="1.44825304" stroke-linecap="round" stroke-linejoin="round"></path>
            </g>
            <g transform="translate(9.792937, 0.000000)">
                <path d="M169.843006,46.0349021 L147.296705,46.0349021 C141.372753,46.0349021 136.569856,41.4142585 136.569856,35.7150997 L136.569856,15.3547045 C136.569856,9.65554572 141.372753,5.03490211 147.296705,5.03490211 L169.843006,5.03490211 C175.766959,5.03490211 180.569856,9.65554572 180.569856,15.3547045 L180.569856,35.7150997 C180.569856,41.4142585 175.766959,46.0349021 169.843006,46.0349021 Z" id="Path-Copy-2" fill="#F0F0F2" fill-rule="nonzero" transform="translate(158.569856, 25.534902) rotate(-345.000000) translate(-158.569856, -25.534902) "></path>
                <path d="M99.0702517,17.4492102 C99.0702517,17.4492102 62.584215,17.4492102 35.7234117,43.8632108 L35.7234117,117.889249 C35.7234117,117.889249 164.26306,119.845388 164.26306,117.889249 C164.26306,115.93311 164.296112,38.9716385 164.296112,38.9716385 C164.296112,38.9716385 138.00085,17.4492102 99.0702517,17.4492102 Z" id="Path" fill="#EF3E42"></path>
                <path d="M41.1572679,38.9716385 C41.1572679,38.9716385 21.3253454,54.980643 0.419872193,90.2339937 C0.419872193,90.2339937 4.92951989,110.632682 43.8711357,113.755405 L41.1572679,38.9716385 Z" id="Path" fill="#EF3E42"></path>
                <path d="M164.297336,38.9716385 C164.297336,38.9716385 184.129258,54.980643 205.034731,90.2339937 C205.034731,90.2339937 200.525084,110.632682 161.583468,113.755405 L164.297336,38.9716385 Z" id="Path" fill="#EF3E42"></path>
            </g>
        </g>
        <g id="Group" transform="translate(339.929543, 351.961260)">
            <path d="M122.930744,85.6086351 L6.0557077,85.6086351 C2.83383127,85.6086351 0.222789327,82.9975931 0.222789327,79.7757167 L0.222789327,5.99082949 C0.222789327,2.76895306 2.83383127,0.157911116 6.0557077,0.157911116 L122.930744,0.157911116 C126.15262,0.157911116 128.763662,2.76895306 128.763662,5.99082949 L128.763662,79.7757167 C128.763662,82.996369 126.15262,85.6086351 122.930744,85.6086351 Z" id="Path" fill="#B30838" fill-rule="nonzero"></path>
            <circle id="Oval" fill="#EF3E42" cx="64.4938378" cy="42.8832731" r="7.87719406"></circle>
        </g>
        <g id="Group" transform="translate(364.129398, 178.550597)">
            <rect id="Rectangle" fill="#FA957C" fill-rule="nonzero" x="27.3795466" y="112.27213" width="25.2155898" height="28.246504"></rect>
            <path d="M26.1480847,110.744432 C26.1480847,110.744432 28.3710815,124.777711 38.9437816,125.031104 C52.8228222,125.365288 52.5953662,111.368732 52.5953662,111.368732 C52.5953662,111.368732 50.7026512,115.485438 39.9708159,115.501351 C28.0013981,115.518489 26.1480847,110.744432 26.1480847,110.744432 Z" id="Path" fill="#E7785D" fill-rule="nonzero"></path>
            <ellipse id="Oval" fill="#0C0D1E" fill-rule="nonzero" cx="40.0393664" cy="64.8804336" rx="35.0648367" ry="35.9694593"></ellipse>
            <g transform="translate(67.608934, 75.198800)" id="Path">
                <path d="M2.73835013,2.80539414 C2.73835013,2.80539414 5.26370388,-1.21093433 10.4710984,0.764790802 C15.6784929,2.73929181 13.3232914,15.3868705 5.51219967,16.9990329 C5.51219967,16.9990329 2.71141956,17.6098673 0.516576866,15.6928998 C0.515353333,15.6916757 2.43721731,6.3504375 2.73835013,2.80539414 Z" fill="#FA957C" fill-rule="nonzero"></path>
                <path d="M9.43794347,5.22669793 C9.43794347,5.22669793 5.07518983,3.7712226 1.97939748,10.1953896" stroke="#E7785D" stroke-width="1.44825304" stroke-linecap="round" stroke-linejoin="round"></path>
            </g>
            <g transform="translate(0.000000, 75.198800)" id="Path">
                <path d="M10.5491594,2.80539414 C10.5491594,2.80539414 8.0250298,-1.21093433 2.8164112,0.764790802 C-2.39098329,2.73929181 -0.035781835,15.3868705 7.77653402,16.9990329 C7.77653402,16.9990329 10.5773141,17.6098673 12.7721562,15.6928998 C12.7709321,15.6916757 10.8502923,6.3504375 10.5491594,2.80539414 Z" fill="#FA957C" fill-rule="nonzero"></path>
                <path d="M3.8495661,5.22669793 C3.8495661,5.22669793 8.21231973,3.7712226 11.3081121,10.1953896" stroke="#E7785D" stroke-width="1.44825304" stroke-linecap="round" stroke-linejoin="round"></path>
            </g>
            <path d="M70.8393788,67.1058786 C70.8430512,75.2107584 70.0033068,92.1660055 64.7493959,102.230697 C59.8162036,111.679658 51.6586867,116.765864 40.9635749,117.068221 C30.267239,117.370578 22.2994603,113.461972 15.914465,101.197542 C9.52946982,88.933112 9.834275,67.256445 9.834275,67.256445 C9.834275,67.256445 9.834275,38.3036254 40.0050912,38.3036254 C71.7831732,38.3048495 70.8393788,67.1058786 70.8393788,67.1058786 Z" id="Path" fill="#FA957C" fill-rule="nonzero"></path>
            <path d="M10.5491594,78.0041939 C10.5491594,78.0041939 16.990464,63.8742092 11.3081121,53.7030196 C11.306888,53.7030196 6.16192345,70.0657939 10.5491594,78.0041939 Z" id="Path" fill="#0C0D1E" fill-rule="nonzero"></path>
            <path d="M70.2542508,78.0041939 C70.2542508,78.0041939 63.8129462,63.8742092 69.4952982,53.7030196 C69.4965223,53.7030196 74.6402627,70.0657939 70.2542508,78.0041939 Z" id="Path" fill="#0C0D1E" fill-rule="nonzero"></path>
            <path d="M55.6713428,39.9280289 C55.6713428,39.9280289 52.7016346,57.0558765 70.4133861,64.8412618 C70.4133861,64.8424859 69.6850363,44.7951188 55.6713428,39.9280289 Z" id="Path" fill="#0C0D1E" fill-rule="nonzero"></path>
            <path d="M59.6582925,42.070234 C59.6582925,42.070234 57.0068547,59.1613581 33.7743347,55.3506813 C15.6904516,52.3858695 10.1696831,66.2098248 10.1696831,66.2098248 C10.1696831,66.2098248 6.96127197,40.5119328 36.1576909,35.256759 C36.1564667,35.256759 51.0931446,35.1784543 59.6582925,42.070234 Z" id="Path" fill="#0C0D1E" fill-rule="nonzero"></path>
            <g transform="translate(12.523660, 69.078214)">
                <g transform="translate(11.017055, 14.161755)" fill="#0C0D1E" fill-rule="nonzero" id="Oval">
                    <circle cx="3.31613344" cy="3.12149881" r="2.75793601"></circle>
                    <circle cx="28.852442" cy="3.12149881" r="2.75793601"></circle>
                </g>
                <path d="M25.7174779,17.9807748 L25.7211502,21.7020911 C25.7223743,22.6409889 26.5559981,23.3436322 27.4447072,23.1575664 L29.4241047,22.7425907" id="Path" stroke="#0C0D1E" stroke-width="1.39500394" stroke-linecap="round" stroke-linejoin="round"></path>
                <path d="M22.5274285,3.42724567 L5.81210838,5.43602197 C5.81210838,5.43602197 7.15374081,1.00226953 13.9843147,0.240868648 C20.8136644,-0.520532239 22.5274285,3.42724567 22.5274285,3.42724567 Z" id="Path" fill="#0C0D1E" fill-rule="nonzero"></path>
                <path d="M32.1661272,3.42724567 L48.8814473,5.43602197 C48.8814473,5.43602197 47.5398149,1.00226953 40.709241,0.240868648 C33.8798912,-0.520532239 32.1661272,3.42724567 32.1661272,3.42724567 Z" id="Path" fill="#0C0D1E" fill-rule="nonzero"></path>
                <g transform="translate(0.000000, 0.282489)" stroke="#FFFFFF" stroke-width="1.52977924">
                    <circle id="Oval" cx="11.6193203" cy="11.6070791" r="11.4050998"></circle>
                    <circle id="Oval" cx="43.9213245" cy="11.6070791" r="11.4050998"></circle>
                    <path d="M23.0244201,12.5557699 C23.0244201,12.5557699 27.0517656,6.36296111 32.5162247,12.5557699" id="Path"></path>
                </g>
                <path d="M17.9700402,28.2009292 C17.9700402,28.2009292 19.6470808,30.3725131 27.1007303,30.3725131 C33.8786671,30.3725131 36.9548736,28.2009292 36.9548736,28.2009292" id="Path" stroke="#0C0D1E" stroke-width="1.39500394" stroke-linecap="round" stroke-linejoin="round"></path>
            </g>
            <path d="M39.3709985,127.863711 C39.3709985,127.863711 23.967932,127.028863 3.84933198,135.924522 C3.84933198,135.924522 3.42969391,153.286176 38.1517778,153.286176 C72.8750857,153.286176 75.9672057,134.258499 75.9672057,134.258499 C75.9672057,134.258499 53.9159588,126.39477 39.3709985,127.863711 Z" id="Path" fill="#FA957C" fill-rule="nonzero"></path>
            <circle id="Oval" fill="#0C0D1E" fill-rule="nonzero" cx="50.0608533" cy="20.7709555" r="20.3567082"></circle>
        </g>
        <g id="Group-33" transform="translate(439.642613, 152.232775)">
            <path d="M0,18.6629079 C-1.26227278e-15,8.3556685 8.3556685,-2.65283003e-14 18.6629079,-2.84217094e-14 L65.6906082,-2.84217094e-14 C75.9978477,-1.81535042e-14 84.3535162,8.3556685 84.3535162,18.6629079 C84.3535162,28.9701474 75.9978477,37.3258159 65.6906082,37.3258159 L18.6629079,37.3258159 C8.3556685,37.3258159 1.26227278e-15,28.9701474 0,18.6629079 Z" id="Path" fill="#EF3E42"></path>
            <g id="Group-34" transform="translate(13.573024, 13.148867)" stroke="#B30838" stroke-linecap="round" stroke-linejoin="round" stroke-width="3.39325599">
                <path d="M0,10.603925 L24.6011059,10.603925" id="Path"></path>
                <path d="M0,0.424156999 L51.4530717,0.424156999" id="Path-Copy"></path>
            </g>
            <path d="M11.4063255,33.7232145 L11.4063255,40.1794391 C11.4063255,41.1164608 12.1659317,41.876067 13.1029535,41.876067 C13.4864808,41.876067 13.8586933,41.7461225 14.1588882,41.5074257 L23.9486301,33.7232145 L11.4063255,33.7232145 Z" id="Path" fill="#EF3E42"></path>
        </g>
        <path d="M503.932153,472.499472 L504.74738,490.148723 C504.900279,493.458902 502.340797,496.266281 499.030618,496.41918 C497.884558,496.472117 496.747346,496.195364 495.753771,495.621723 L479.246229,486.09109 C476.376474,484.434236 475.393223,480.764693 477.050077,477.894937 C477.623718,476.901362 478.470196,476.093081 479.489182,475.565895 L495.181495,467.447278 C498.124644,465.924602 501.74491,467.076123 503.267585,470.019272 C503.665484,470.788364 503.892198,471.634469 503.932153,472.499472 Z" id="Triangle" fill="#F0F0F2" fill-rule="nonzero"></path>
        <path d="M149.638665,500.700305 L139.93876,500.700305 C137.390148,500.700305 135.323838,498.633995 135.323838,496.085383 L135.323838,486.980399 C135.323838,484.431787 137.390148,482.365477 139.93876,482.365477 L149.638665,482.365477 C152.187276,482.365477 154.253586,484.431787 154.253586,486.980399 L154.253586,496.085383 C154.253586,498.633995 152.187276,500.700305 149.638665,500.700305 Z" id="Path-Copy-2" fill="#F0F0F2" fill-rule="nonzero"></path>
        <rect id="Rectangle" fill="#F0F0F2" fill-rule="nonzero" x="0" y="438" width="727" height="6" rx="1"></rect>
    </g>
</svg>